<svg width="123" height="15" viewBox="0 0 123 15" fill="none" xmlns="http://www.w3.org/2000/svg">
<path d="M67.7383 14.4795V0.479492H70.4783L75.5583 8.75949L73.7783 8.73949L78.9383 0.479492H81.5783V14.4795H78.6383V9.73949C78.6383 8.52616 78.665 7.43283 78.7183 6.45949C78.785 5.48616 78.8916 4.52616 79.0383 3.57949L79.3783 4.51949L75.2783 10.8595H73.9383L69.9383 4.55949L70.2583 3.57949C70.4183 4.47283 70.525 5.39283 70.5783 6.33949C70.645 7.28616 70.6783 8.41949 70.6783 9.73949V14.4795H67.7383Z" fill="white" style="fill:white;fill-opacity:1;"/>
<path d="M55.8428 14.4795V0.479492H65.2828V3.11949H58.7828V11.8395H65.4228V14.4795H55.8428ZM57.2428 8.61949V6.05949H64.3228V8.61949H57.2428Z" fill="white" style="fill:white;fill-opacity:1;"/>
<path d="M48.5662 14.6797C47.2595 14.6797 46.1395 14.4464 45.2062 13.9797C44.2862 13.4997 43.4928 12.8064 42.8262 11.8997L44.7062 9.77971C45.3595 10.6864 46.0062 11.3064 46.6462 11.6397C47.2995 11.9597 47.9995 12.1197 48.7462 12.1197C49.1595 12.1197 49.5262 12.0597 49.8462 11.9397C50.1795 11.8197 50.4395 11.653 50.6262 11.4397C50.8262 11.2264 50.9262 10.9797 50.9262 10.6997C50.9262 10.4864 50.8795 10.293 50.7862 10.1197C50.6928 9.93304 50.5595 9.77304 50.3862 9.63971C50.2128 9.49304 50.0062 9.36637 49.7662 9.25971C49.5262 9.13971 49.2595 9.03971 48.9662 8.95971C48.6728 8.87971 48.3528 8.80637 48.0062 8.73971C47.2595 8.57971 46.6062 8.37304 46.0462 8.11971C45.4862 7.86637 45.0195 7.55971 44.6462 7.19971C44.2728 6.83971 43.9928 6.42637 43.8062 5.95971C43.6328 5.47971 43.5462 4.94637 43.5462 4.35971C43.5462 3.53304 43.7795 2.81304 44.2462 2.19971C44.7128 1.57304 45.3328 1.08637 46.1062 0.739707C46.8795 0.379707 47.7328 0.199707 48.6662 0.199707C49.9328 0.199707 50.9728 0.41304 51.7862 0.839707C52.6128 1.26637 53.2728 1.86637 53.7662 2.63971L51.8462 4.51971C51.4328 3.94637 50.9595 3.51304 50.4262 3.21971C49.8928 2.92637 49.3195 2.77971 48.7062 2.77971C48.2795 2.77971 47.8995 2.83971 47.5662 2.95971C47.2462 3.06637 46.9995 3.23304 46.8262 3.45971C46.6528 3.67304 46.5662 3.92637 46.5662 4.21971C46.5662 4.45971 46.6262 4.67304 46.7462 4.85971C46.8662 5.04637 47.0328 5.21304 47.2462 5.35971C47.4728 5.49304 47.7462 5.61304 48.0662 5.71971C48.3862 5.82637 48.7395 5.91304 49.1262 5.97971C49.8595 6.12637 50.5195 6.32637 51.1062 6.57971C51.6928 6.81971 52.1928 7.11304 52.6062 7.45971C53.0328 7.80637 53.3595 8.20637 53.5862 8.65971C53.8128 9.11304 53.9262 9.61971 53.9262 10.1797C53.9262 11.1264 53.6995 11.933 53.2462 12.5997C52.7928 13.2664 52.1662 13.7797 51.3662 14.1397C50.5662 14.4997 49.6328 14.6797 48.5662 14.6797Z" fill="white" style="fill:white;fill-opacity:1;"/>
<path d="M35.6642 14.5995C34.5308 14.5995 33.5175 14.3661 32.6242 13.8995C31.7442 13.4195 31.0508 12.7661 30.5442 11.9395C30.0375 11.0995 29.7842 10.1528 29.7842 9.09947V0.459473H32.7842V8.91947C32.7842 9.47947 32.9108 9.98614 33.1642 10.4395C33.4308 10.8795 33.7842 11.2328 34.2242 11.4995C34.6642 11.7661 35.1442 11.8995 35.6642 11.8995C36.2108 11.8995 36.7042 11.7661 37.1442 11.4995C37.5975 11.2328 37.9508 10.8795 38.2042 10.4395C38.4708 9.98614 38.6042 9.47947 38.6042 8.91947V0.459473H41.5042V9.09947C41.5042 10.1528 41.2508 11.0995 40.7442 11.9395C40.2508 12.7661 39.5642 13.4195 38.6842 13.8995C37.8042 14.3661 36.7975 14.5995 35.6642 14.5995Z" fill="white" style="fill:white;fill-opacity:1;"/>
<path d="M20.8886 14.6797C19.8619 14.6797 18.9086 14.4997 18.0286 14.1397C17.1619 13.7797 16.4086 13.2797 15.7686 12.6397C15.1419 11.9864 14.6486 11.2197 14.2886 10.3397C13.9419 9.45971 13.7686 8.49304 13.7686 7.43971C13.7686 6.39971 13.9419 5.43971 14.2886 4.55971C14.6486 3.67971 15.1419 2.91304 15.7686 2.25971C16.4086 1.60637 17.1619 1.09971 18.0286 0.739707C18.9086 0.379707 19.8619 0.199707 20.8886 0.199707C21.9152 0.199707 22.8552 0.379707 23.7086 0.739707C24.5752 1.09971 25.3286 1.60637 25.9686 2.25971C26.6086 2.91304 27.1019 3.68637 27.4486 4.57971C27.8086 5.45971 27.9886 6.41304 27.9886 7.43971C27.9886 8.47971 27.8086 9.43971 27.4486 10.3197C27.1019 11.1997 26.6086 11.9664 25.9686 12.6197C25.3286 13.273 24.5752 13.7797 23.7086 14.1397C22.8552 14.4997 21.9152 14.6797 20.8886 14.6797ZM20.8886 11.8397C21.4752 11.8397 22.0152 11.733 22.5086 11.5197C23.0019 11.293 23.4286 10.9864 23.7886 10.5997C24.1619 10.1997 24.4486 9.73304 24.6486 9.19971C24.8486 8.66637 24.9486 8.07971 24.9486 7.43971C24.9486 6.81304 24.8486 6.23304 24.6486 5.69971C24.4486 5.16637 24.1619 4.69971 23.7886 4.29971C23.4286 3.89971 23.0019 3.59304 22.5086 3.37971C22.0152 3.15304 21.4752 3.03971 20.8886 3.03971C20.3019 3.03971 19.7552 3.15304 19.2486 3.37971C18.7552 3.59304 18.3219 3.89971 17.9486 4.29971C17.5886 4.68637 17.3086 5.15304 17.1086 5.69971C16.9086 6.23304 16.8086 6.81971 16.8086 7.45971C16.8086 8.29971 16.9819 9.05304 17.3286 9.71971C17.6886 10.373 18.1686 10.893 18.7686 11.2797C19.3819 11.653 20.0886 11.8397 20.8886 11.8397Z" fill="white" style="fill:white;fill-opacity:1;"/>
<path d="M8.84 14.4795V0.479492H11.84V14.4795H8.84ZM0 14.4795V0.479492H3V14.4795H0ZM1.22 8.87949V6.11949H10.36V8.87949H1.22Z" fill="white" style="fill:white;fill-opacity:1;"/>
<path d="M110.2 14.48V0.47998H115.96C116.974 0.47998 117.9 0.653314 118.74 0.999981C119.58 1.33331 120.3 1.81331 120.9 2.43998C121.5 3.05331 121.96 3.79331 122.28 4.65998C122.6 5.51331 122.76 6.45331 122.76 7.47998C122.76 8.51998 122.6 9.46665 122.28 10.32C121.96 11.1733 121.5 11.9133 120.9 12.54C120.3 13.1533 119.58 13.6333 118.74 13.98C117.914 14.3133 116.987 14.48 115.96 14.48H110.2ZM113.2 12.28L112.88 11.78H115.86C116.46 11.78 116.994 11.68 117.46 11.48C117.94 11.28 118.347 10.9933 118.68 10.62C119.027 10.2333 119.287 9.77998 119.46 9.25998C119.634 8.72665 119.72 8.13331 119.72 7.47998C119.72 6.82665 119.634 6.23998 119.46 5.71998C119.287 5.18665 119.027 4.73331 118.68 4.35998C118.347 3.97331 117.94 3.67998 117.46 3.47998C116.994 3.27998 116.46 3.17998 115.86 3.17998H112.82L113.2 2.71998V12.28Z" fill="white" style="fill:white;fill-opacity:1;"/>
<path fill-rule="evenodd" clip-rule="evenodd" d="M90.2997 -2.09808e-05C89.273 -2.09808e-05 88.3197 0.17998 87.4397 0.53998C86.573 0.89998 85.8197 1.39998 85.1797 2.03998C84.553 2.69331 84.0597 3.45998 83.6997 4.33998C83.353 5.21998 83.1797 6.18665 83.1797 7.23998C83.1797 8.27998 83.353 9.23998 83.6997 10.12C84.0597 11 84.553 11.7666 85.1797 12.42C85.8197 13.0733 86.573 13.58 87.4397 13.94C88.3197 14.3 89.273 14.48 90.2997 14.48C91.3264 14.48 92.2664 14.3 93.1197 13.94C93.9864 13.58 94.7397 13.0733 95.3797 12.42C96.0197 11.7666 96.513 10.9933 96.8597 10.1C97.2179 9.22427 97.3979 8.27593 97.3997 7.25498H97.42L97.4199 7.21998C97.4199 6.37998 97.5932 5.62665 97.9399 4.95998C98.2999 4.30665 98.7799 3.78665 99.3799 3.39998C99.9932 3.02665 100.7 2.83998 101.5 2.83998C102.087 2.83998 102.627 2.94665 103.12 3.15998C103.613 3.38665 104.04 3.69331 104.4 4.07998C104.773 4.47998 105.06 4.94665 105.26 5.47998C105.46 6.01331 105.56 6.59998 105.56 7.23998C105.56 7.86665 105.46 8.44665 105.26 8.97998C105.06 9.51331 104.773 9.97998 104.4 10.38C104.04 10.78 103.613 11.0866 103.12 11.3C102.627 11.5266 102.087 11.64 101.5 11.64C100.919 11.64 100.377 11.5289 99.8749 11.3067C99.5026 12.2587 98.9988 13.096 98.3635 13.8184C98.4543 13.8606 98.5464 13.9012 98.6399 13.94C99.5199 14.3 100.473 14.48 101.5 14.48C102.527 14.48 103.467 14.3 104.32 13.94C105.187 13.58 105.94 13.0733 106.58 12.42C107.22 11.7666 107.713 10.9933 108.06 10.1C108.42 9.21998 108.6 8.26665 108.6 7.23998C108.6 6.19998 108.42 5.23998 108.06 4.35998C107.713 3.47998 107.22 2.71331 106.58 2.05998C105.94 1.40665 105.187 0.89998 104.32 0.53998C103.467 0.17998 102.527 -2.09808e-05 101.5 -2.09808e-05C100.473 -2.09808e-05 99.5199 0.17998 98.6399 0.53998C97.7732 0.89998 97.0199 1.39998 96.3799 2.03998C95.7532 2.69331 95.2599 3.45998 94.8999 4.33998C94.5532 5.21998 94.3799 6.18665 94.3799 7.23998C94.3799 7.32046 94.3809 7.40046 94.383 7.47998H94.3547C94.3322 8.01539 94.2339 8.51539 94.0597 8.97998C93.8597 9.51331 93.573 9.97998 93.1997 10.38C92.8397 10.78 92.413 11.0866 91.9197 11.3C91.4264 11.5266 90.8864 11.64 90.2997 11.64C89.713 11.64 89.1664 11.5266 88.6597 11.3C88.1664 11.0866 87.733 10.78 87.3597 10.38C86.9997 9.99331 86.7197 9.52665 86.5197 8.97998C86.3197 8.44665 86.2197 7.85998 86.2197 7.21998C86.2197 6.37998 86.393 5.62665 86.7397 4.95998C87.0997 4.30665 87.5797 3.78665 88.1797 3.39998C88.793 3.02665 89.4997 2.83998 90.2997 2.83998C90.8864 2.83998 91.4264 2.94665 91.9197 3.15998L91.9197 3.16001C92.3076 2.23455 92.8067 1.40497 93.4169 0.671256C93.3193 0.625522 93.2203 0.581763 93.1197 0.53998C92.2664 0.17998 91.3264 -2.09808e-05 90.2997 -2.09808e-05Z" fill="white" style="fill:white;fill-opacity:1;"/>
</svg>
